<?xml version="1.0" standalone="no"?>
<!DOCTYPE svg PUBLIC "-//W3C//DTD SVG 20010904//EN"
 "http://www.w3.org/TR/2001/REC-SVG-20010904/DTD/svg10.dtd">
<svg version="1.0" xmlns="http://www.w3.org/2000/svg"
 width="1280.000000pt" height="1063.000000pt" viewBox="0 0 1280.000000 1063.000000"
 preserveAspectRatio="xMidYMid meet">
<metadata>
Created by potrace 1.15, written by Peter Selinger 2001-2017
</metadata>
<g transform="translate(0.000000,1063.000000) scale(0.100000,-0.100000)"
fill="#000000" stroke="none">
<path d="M6170 10320 c-176 -27 -323 -87 -487 -198 -348 -237 -614 -562 -847
-1036 -121 -246 -158 -339 -257 -636 -117 -356 -128 -400 -139 -565 -10 -146
-21 -224 -70 -465 -16 -80 -34 -192 -39 -250 -9 -97 -35 -198 -75 -291 -8 -20
-40 -67 -70 -104 -41 -50 -61 -85 -78 -138 -12 -40 -27 -77 -32 -84 -8 -9
-117 -13 -426 -16 l-415 -3 -100 -41 c-55 -22 -111 -44 -125 -48 -55 -16 -349
-168 -405 -210 -33 -24 -91 -60 -130 -80 -38 -19 -101 -59 -140 -88 -58 -44
-76 -65 -110 -130 -23 -42 -54 -114 -70 -160 -15 -45 -40 -107 -55 -137 -31
-62 -126 -413 -161 -592 -12 -64 -25 -122 -29 -128 -4 -7 -38 -18 -75 -26 -37
-8 -97 -28 -133 -45 -48 -23 -99 -37 -191 -50 -151 -23 -151 -23 -151 -47 0
-40 20 -44 160 -32 126 11 133 11 154 -8 29 -27 71 -47 139 -67 l57 -16 0 -41
c0 -23 -7 -134 -16 -247 -13 -174 -14 -247 -5 -471 6 -146 8 -314 5 -375 -4
-68 0 -184 10 -305 31 -384 38 -543 46 -1115 7 -480 12 -609 29 -750 36 -310
95 -518 181 -644 62 -92 97 -117 182 -131 40 -7 98 -19 128 -27 123 -34 663
-35 1225 -2 94 6 823 14 1620 19 798 4 1866 15 2375 24 509 9 1357 23 1885 32
676 10 991 19 1065 29 58 7 106 14 108 14 1 1 2 10 2 21 0 24 -1 24 38 4 19
-9 41 -13 54 -8 29 9 261 145 270 159 4 5 26 65 49 132 22 67 50 137 63 155
37 56 64 391 82 1018 8 293 -18 830 -71 1452 -18 213 -22 294 -14 317 7 21 7
68 0 158 -7 70 -16 184 -22 253 -5 69 -14 177 -19 240 -5 63 -9 147 -9 185 1
64 2 67 12 40 7 -16 30 -66 52 -110 36 -73 43 -80 72 -83 28 -3 33 1 40 25 11
38 6 244 -6 288 -8 29 -6 45 10 81 25 59 24 105 -2 138 -28 35 -55 45 -97 35
-30 -7 -35 -4 -53 24 -13 22 -19 50 -19 92 0 33 -4 75 -9 93 -10 33 -4 41 16
21 6 -6 21 -9 34 -7 36 5 37 42 2 70 -112 91 -167 172 -213 313 -13 39 -59
153 -102 255 -67 156 -87 193 -126 233 -62 63 -171 136 -235 156 -29 9 -72 30
-97 47 -136 94 -207 108 -535 109 -232 0 -270 -3 -355 -22 -131 -30 -411 -80
-493 -89 -90 -9 -97 -2 -97 95 0 90 -24 336 -40 406 -34 157 -95 293 -202 453
-81 120 -101 171 -124 319 -9 60 -28 171 -41 248 -14 77 -29 169 -33 205 -20
163 -203 590 -401 930 -205 355 -516 716 -798 929 -97 72 -311 196 -398 230
-84 33 -244 70 -345 81 -130 14 -244 11 -378 -10z m560 -224 c108 -30 200 -73
320 -149 280 -177 550 -560 800 -1137 95 -218 145 -377 210 -672 60 -267 60
-268 59 -425 0 -87 -6 -259 -13 -383 -12 -208 -16 -235 -49 -355 -56 -200 -61
-302 -22 -456 l6 -26 -173 -7 c-95 -4 -218 -14 -273 -23 -153 -23 -357 -21
-485 5 -216 45 -317 53 -585 47 -214 -5 -553 -22 -786 -40 -67 -5 -422 16
-634 38 l-120 12 3 35 c1 19 3 94 4 165 2 141 -5 181 -66 355 -46 131 -76 275
-76 367 0 43 -5 149 -12 236 -10 142 -10 161 5 192 9 20 28 117 42 218 84 619
213 918 622 1443 96 124 207 227 433 405 120 95 252 149 435 180 86 14 261 2
355 -25z m1594 -2017 c25 -29 26 -36 25 -147 -1 -64 -4 -142 -8 -172 l-7 -55
-7 45 c-4 25 -12 97 -18 160 -6 63 -14 134 -19 158 -9 50 -1 53 34 11z"/>
</g>
</svg>
