<svg width="93" height="53" viewBox="0 0 93 53" fill="none" xmlns="http://www.w3.org/2000/svg">
<g filter="url(#filter0_d_49_73)">
<path d="M21.2349 24.8445C21.4353 24.8445 21.5894 24.937 21.6973 25.1219C21.8206 25.3069 21.8823 25.5612 21.8823 25.8848C21.8823 26.4859 21.7359 26.9637 21.443 27.3182C20.5799 28.3509 19.7399 29.0752 18.9231 29.4914C18.1216 29.9075 17.1506 30.1156 16.0101 30.1156C15.2086 30.1156 14.4688 30.0154 13.7907 29.815C13.1125 29.6147 12.2879 29.3141 11.317 28.9134C10.4384 28.5281 9.59074 28.2121 8.77388 27.9655C7.98783 29.3989 6.80877 30.1156 5.23669 30.1156C4.37359 30.1156 3.68773 29.9229 3.17911 29.5376C2.65508 29.1369 2.39307 28.6283 2.39307 28.0118C2.39307 27.2566 2.75526 26.6324 3.47966 26.1391C4.20405 25.6305 5.16733 25.3762 6.36951 25.3762H6.67006L7.0862 18.6486C7.17867 17.1074 7.4561 15.8358 7.91848 14.834C8.38086 13.8322 9.02048 12.9768 9.83734 12.2678C10.5463 11.6513 11.3555 11.1889 12.2648 10.8807C13.1742 10.557 14.1375 10.3952 15.1547 10.3952C16.8192 10.3952 18.0985 10.8268 18.9924 11.6899C19.8863 12.553 20.3333 13.6781 20.3333 15.0652C20.3333 16.0054 20.1638 16.7683 19.8247 17.354C19.4856 17.9242 19.0155 18.2094 18.4144 18.2094C17.9829 18.2094 17.6438 18.1092 17.3972 17.9088C17.1506 17.6931 17.0273 17.3925 17.0273 17.0072C17.0273 16.8685 17.0581 16.6142 17.1198 16.2443C17.2123 15.8127 17.2585 15.4274 17.2585 15.0883C17.2585 14.441 17.0658 13.9324 16.6805 13.5625C16.3106 13.1772 15.7404 12.9845 14.9697 12.9845C13.6134 12.9845 12.5654 13.4315 11.8256 14.3254C11.0858 15.2039 10.6157 16.5911 10.4153 18.4868L9.88358 23.7348C9.80652 24.4746 9.70634 25.1142 9.58304 25.6537C10.5694 25.8232 11.8024 26.0929 13.2821 26.4628C14.1452 26.6786 14.8079 26.8327 15.2703 26.9252C15.7327 27.0177 16.1411 27.0639 16.4956 27.0639C17.3895 27.0639 18.1524 26.9175 18.7843 26.6246C19.4317 26.3164 20.0405 25.8309 20.6107 25.1682C20.7957 24.9524 21.0038 24.8445 21.2349 24.8445ZM25.7556 30.1156C25.0774 30.1156 24.5611 29.9306 24.2066 29.5607C23.8675 29.1908 23.698 28.7053 23.698 28.1043C23.698 27.4107 23.8907 26.8558 24.276 26.4397C24.6767 26.0236 25.2316 25.8155 25.9405 25.8155C26.6187 25.8155 27.1273 25.985 27.4664 26.3241C27.8209 26.6478 27.9981 27.1333 27.9981 27.7806C27.9981 28.4896 27.7978 29.0598 27.397 29.4914C26.9963 29.9075 26.4492 30.1156 25.7556 30.1156ZM59.1042 24.8445C59.3046 24.8445 59.4587 24.937 59.5666 25.1219C59.6899 25.3069 59.7515 25.5612 59.7515 25.8848C59.7515 26.4859 59.6051 26.9637 59.3123 27.3182C58.5725 28.2121 57.8249 28.9057 57.0697 29.3989C56.3145 29.8767 55.4206 30.1156 54.3879 30.1156C53.2474 30.1156 52.3149 29.7842 51.5906 29.1215C50.8662 28.4433 50.188 27.3953 49.5561 25.9773C49.0937 24.9601 48.7084 24.2049 48.4002 23.7117C48.1073 23.2031 47.8145 22.8486 47.5216 22.6482C47.2288 22.4324 46.8589 22.3014 46.4119 22.2552L46.1576 23.966C45.834 26.17 45.202 27.7575 44.2619 28.7285C43.3371 29.6995 42.0579 30.185 40.4241 30.185C39.3607 30.185 38.4128 29.9306 37.5805 29.422C36.7637 28.898 36.1934 28.2353 35.8697 27.4338C35.7618 27.1564 35.7079 26.8558 35.7079 26.5322C35.7079 26.0698 35.8158 25.6691 36.0316 25.33C36.2473 24.9909 36.5248 24.8214 36.8638 24.8214C37.0642 24.8214 37.2337 24.8753 37.3725 24.9832C37.5112 25.0757 37.6422 25.2452 37.7655 25.4918C38.2433 26.3858 38.6594 27.01 39.0139 27.3644C39.3838 27.7189 39.8385 27.8962 40.3779 27.8962C40.9944 27.8962 41.5184 27.6188 41.95 27.0639C42.397 26.4936 42.7129 25.6228 42.8979 24.4515L43.2215 22.2552H42.8516C42.4971 22.2552 42.2197 22.155 42.0193 21.9546C41.819 21.7543 41.7188 21.4768 41.7188 21.1224C41.7188 20.7216 41.819 20.4057 42.0193 20.1745C42.2351 19.9279 42.4971 19.8046 42.8054 19.8046H43.5683C43.6762 19.0494 43.7533 18.5253 43.7995 18.2325L44.5162 13.0308C44.1155 12.9845 43.7378 12.9614 43.3834 12.9614C42.0733 12.9614 41.0792 13.1926 40.401 13.655C39.7229 14.1019 39.3838 14.7493 39.3838 15.5969C39.3838 15.9823 39.4223 16.2982 39.4994 16.5448C39.5919 16.776 39.7075 17.038 39.8462 17.3309C39.9078 17.4542 39.9386 17.5929 39.9386 17.747C39.9386 18.0861 39.7768 18.3866 39.4532 18.6486C39.1449 18.8952 38.7981 19.0185 38.4128 19.0185C37.9196 19.0185 37.5574 18.8028 37.3262 18.3712C36.8638 17.5543 36.6327 16.6758 36.6327 15.7357C36.6327 14.7647 36.8947 13.8784 37.4187 13.077C37.9581 12.2755 38.7673 11.6359 39.8462 11.1581C40.9251 10.6649 42.2582 10.4183 43.8457 10.4183C44.5393 10.4183 45.1712 10.4569 45.7415 10.5339C46.3272 10.611 46.9668 10.7574 47.6604 10.9732C48.4156 11.2044 48.7932 11.6359 48.7932 12.2678C48.7932 13.1155 48.431 13.5394 47.7066 13.5394L46.805 19.7583C48.6082 19.5734 50.0724 18.8028 51.1975 17.4465C52.3381 16.0747 53.2859 14.2175 54.0412 11.8748C54.1799 11.4433 54.4111 11.1119 54.7347 10.8807C55.0738 10.6495 55.4976 10.5339 56.0063 10.5339C56.4378 10.5339 56.7692 10.6341 57.0004 10.8345C57.247 11.0194 57.3703 11.2891 57.3703 11.6436C57.3703 11.7515 57.3394 11.9288 57.2778 12.1754C56.5072 14.7184 55.4052 16.7375 53.9718 18.2325C52.5384 19.7275 50.9741 20.7216 49.2787 21.2148C49.8643 21.3535 50.3421 21.5616 50.712 21.839C51.0974 22.1165 51.421 22.4632 51.683 22.8794C51.945 23.2801 52.2456 23.8427 52.5847 24.5671C53.0625 25.5843 53.5094 26.3087 53.9256 26.7402C54.3417 27.1564 54.8272 27.3644 55.3821 27.3644C55.8753 27.3644 56.3453 27.2026 56.7923 26.879C57.2393 26.5399 57.8018 25.9696 58.48 25.1682C58.6649 24.9524 58.873 24.8445 59.1042 24.8445ZM67.7273 24.8445C67.9277 24.8445 68.0818 24.937 68.1897 25.1219C68.313 25.3069 68.3747 25.5612 68.3747 25.8848C68.3747 26.5013 68.2283 26.9791 67.9354 27.3182C67.3652 28.0118 66.556 28.6514 65.5079 29.2371C64.4753 29.8228 63.3656 30.1156 62.1788 30.1156C60.5605 30.1156 59.3044 29.6763 58.4104 28.7978C57.5165 27.9193 57.0695 26.7171 57.0695 25.1913C57.0695 24.1278 57.293 23.1414 57.74 22.2321C58.187 21.3073 58.8035 20.5752 59.5895 20.0358C60.391 19.4963 61.2926 19.2266 62.2944 19.2266C63.1883 19.2266 63.905 19.4963 64.4445 20.0358C64.9839 20.5598 65.2536 21.2765 65.2536 22.1858C65.2536 23.2493 64.8683 24.1663 64.0977 24.937C63.3425 25.6922 62.0555 26.2933 60.2368 26.7402C60.6221 27.4492 61.3542 27.8037 62.4331 27.8037C63.1267 27.8037 63.9127 27.5648 64.7912 27.087C65.6852 26.5938 66.4558 25.9542 67.1031 25.1682C67.2881 24.9524 67.4962 24.8445 67.7273 24.8445ZM61.9014 21.4923C61.3311 21.4923 60.8456 21.8236 60.4449 22.4864C60.0596 23.1491 59.8669 23.9506 59.8669 24.8907V24.937C60.7763 24.7212 61.493 24.3975 62.017 23.966C62.541 23.5344 62.803 23.0335 62.803 22.4632C62.803 22.1704 62.7183 21.9392 62.5487 21.7697C62.3946 21.5847 62.1788 21.4923 61.9014 21.4923ZM75.2543 24.8445C75.4547 24.8445 75.6088 24.937 75.7167 25.1219C75.84 25.3069 75.9017 25.5612 75.9017 25.8848C75.9017 26.5013 75.7553 26.9791 75.4624 27.3182C74.7997 28.1351 74.0753 28.8055 73.2892 29.3296C72.5186 29.8536 71.6401 30.1156 70.6537 30.1156C69.2974 30.1156 68.2879 29.4991 67.6251 28.2661C66.9778 27.0331 66.6541 25.4379 66.6541 23.4805C66.6541 21.6001 66.893 19.4578 67.3708 17.0534C67.864 14.6491 68.5807 12.5838 69.5209 10.8576C70.4764 9.13137 71.6093 8.26826 72.9193 8.26826C73.6591 8.26826 74.2371 8.61505 74.6533 9.30861C75.0848 9.98677 75.3006 10.9655 75.3006 12.2447C75.3006 14.0788 74.792 16.2057 73.7747 18.6255C72.7575 21.0453 71.3781 23.4419 69.6365 25.8155C69.7443 26.4474 69.9216 26.9021 70.1682 27.1795C70.4148 27.4415 70.7385 27.5725 71.1392 27.5725C71.7711 27.5725 72.326 27.3953 72.8037 27.0408C73.2815 26.6709 73.8903 26.0467 74.6301 25.1682C74.8151 24.9524 75.0232 24.8445 75.2543 24.8445ZM72.4107 10.557C72.0562 10.557 71.6555 11.1967 71.2085 12.4759C70.7616 13.7551 70.3686 15.3426 70.0295 17.2384C69.6904 19.1341 69.5055 20.9528 69.4746 22.6944C70.5689 20.8912 71.4397 19.0879 72.0871 17.2846C72.7344 15.4659 73.0581 13.8091 73.0581 12.3141C73.0581 11.1427 72.8423 10.557 72.4107 10.557ZM82.7951 24.8445C82.9954 24.8445 83.1496 24.937 83.2574 25.1219C83.3807 25.3069 83.4424 25.5612 83.4424 25.8848C83.4424 26.5013 83.296 26.9791 83.0031 27.3182C82.3404 28.1351 81.616 28.8055 80.83 29.3296C80.0593 29.8536 79.1808 30.1156 78.1944 30.1156C76.8381 30.1156 75.8286 29.4991 75.1658 28.2661C74.5185 27.0331 74.1948 25.4379 74.1948 23.4805C74.1948 21.6001 74.4337 19.4578 74.9115 17.0534C75.4047 14.6491 76.1214 12.5838 77.0616 10.8576C78.0172 9.13137 79.15 8.26826 80.4601 8.26826C81.1999 8.26826 81.7778 8.61505 82.194 9.30861C82.6255 9.98677 82.8413 10.9655 82.8413 12.2447C82.8413 14.0788 82.3327 16.2057 81.3155 18.6255C80.2982 21.0453 78.9188 23.4419 77.1772 25.8155C77.2851 26.4474 77.4623 26.9021 77.7089 27.1795C77.9555 27.4415 78.2792 27.5725 78.6799 27.5725C79.3118 27.5725 79.8667 27.3953 80.3445 27.0408C80.8223 26.6709 81.4311 26.0467 82.1709 25.1682C82.3558 24.9524 82.5639 24.8445 82.7951 24.8445ZM79.9514 10.557C79.597 10.557 79.1962 11.1967 78.7493 12.4759C78.3023 13.7551 77.9093 15.3426 77.5702 17.2384C77.2311 19.1341 77.0462 20.9528 77.0153 22.6944C78.1096 20.8912 78.9805 19.0879 79.6278 17.2846C80.2751 15.4659 80.5988 13.8091 80.5988 12.3141C80.5988 11.1427 80.383 10.557 79.9514 10.557ZM89.6653 19.2266C90.0198 19.2266 90.2664 19.2728 90.4051 19.3653C90.5439 19.4578 90.6132 19.6119 90.6132 19.8277C90.6132 20.1976 90.4129 21.5154 90.0121 23.781C89.6576 25.9542 89.4496 27.2411 89.3879 27.6419C88.8177 31.6029 88.0316 34.7394 87.0298 37.0513C86.028 39.3631 84.6948 40.5191 83.0302 40.5191C82.2442 40.5191 81.6046 40.2725 81.1114 39.7793C80.6182 39.3015 80.3716 38.6696 80.3716 37.8835C80.3716 37.1591 80.5334 36.4193 80.8571 35.6641C81.1961 34.9089 81.8126 34.0381 82.7066 33.0517C83.6159 32.0807 84.8952 30.9633 86.5443 29.6995L86.6137 29.1677C86.7215 28.5975 86.8448 27.7806 86.9836 26.7171C86.6753 27.8268 86.2438 28.6745 85.6889 29.2602C85.134 29.8305 84.5484 30.1156 83.9319 30.1156C83.2383 30.1156 82.668 29.7996 82.2211 29.1677C81.7895 28.5204 81.5737 27.7189 81.5737 26.7634C81.5737 25.6074 81.6508 24.5517 81.8049 23.5961C81.9591 22.6251 82.2134 21.6001 82.5679 20.5213C82.722 20.0589 82.9378 19.7275 83.2152 19.5272C83.4926 19.3268 83.9319 19.2266 84.533 19.2266C84.872 19.2266 85.1032 19.2806 85.2265 19.3884C85.3652 19.4963 85.4346 19.6582 85.4346 19.8739C85.4346 19.9972 85.3498 20.4134 85.1803 21.1224C85.0262 21.6926 84.9029 22.2089 84.8104 22.6713C84.6871 23.3032 84.5792 23.912 84.4867 24.4977C84.3942 25.068 84.348 25.5381 84.348 25.908C84.348 26.4936 84.5098 26.7865 84.8335 26.7865C85.0647 26.7865 85.3498 26.5553 85.6889 26.0929C86.0434 25.6305 86.4133 24.9293 86.7986 23.9891C87.1993 23.0489 87.5846 21.893 87.9545 20.5213C88.0778 20.0589 88.2628 19.7275 88.5094 19.5272C88.7714 19.3268 89.1567 19.2266 89.6653 19.2266ZM83.2845 38.2766C83.6699 38.2766 84.1014 37.8296 84.5792 36.9357C85.057 36.0417 85.5348 34.5544 86.0126 32.4737C84.8258 33.4755 83.9627 34.3849 83.4233 35.2017C82.8992 36.034 82.6372 36.7584 82.6372 37.3749C82.6372 37.6369 82.6834 37.8527 82.7759 38.0222C82.8838 38.1918 83.0533 38.2766 83.2845 38.2766Z" fill="black"/>
</g>
<path d="M6.68547 49.3007C6.27447 49.198 5.90457 48.9925 5.57577 48.6842C5.25724 48.376 5.05174 48.0574 4.95926 47.7286C4.94899 47.595 4.93358 47.4204 4.91303 47.2046C4.90275 46.9888 4.89761 46.7885 4.89761 46.6035C4.90789 46.4186 4.9233 46.3107 4.94385 46.2798C4.97468 46.2593 4.99009 46.1976 4.99009 46.0949C4.97981 46.0538 4.98495 45.987 5.0055 45.8945C5.03633 45.7918 5.06715 45.689 5.09798 45.5863C5.14935 45.463 5.17504 45.3654 5.17504 45.2934C5.17504 45.2112 5.1699 45.1496 5.15963 45.1085C5.15963 45.1085 5.17504 45.0777 5.20586 45.016C5.23669 44.9441 5.27265 44.8876 5.31375 44.8465C5.3754 44.7848 5.40109 44.7232 5.39082 44.6615C5.39082 44.5999 5.39082 44.569 5.39082 44.569C5.38054 44.5279 5.39082 44.4714 5.42164 44.3995C5.45247 44.3276 5.48329 44.2711 5.51412 44.23C5.53467 44.2094 5.56035 44.1683 5.59118 44.1067C5.63228 44.0347 5.65283 43.9988 5.65283 43.9988C5.65283 43.968 5.67338 43.8858 5.71448 43.7522C5.76585 43.6186 5.82237 43.4748 5.88402 43.3206C5.94567 43.1562 6.00218 43.0072 6.05356 42.8737C6.11521 42.7401 6.16144 42.6527 6.19227 42.6116V42.5808C6.23337 42.4781 6.28988 42.3702 6.36181 42.2572C6.37208 42.2058 6.39777 42.1236 6.43887 42.0106C6.47997 41.8873 6.52621 41.7691 6.57758 41.6561C6.69061 41.4095 6.82932 41.132 6.99372 40.8238C7.1684 40.5053 7.35335 40.1919 7.54858 39.8836C7.7438 39.5651 7.92875 39.2825 8.10343 39.0359C8.28838 38.7791 8.44764 38.589 8.58122 38.4657C8.75589 38.2704 8.89461 38.1677 8.99736 38.1574C9.10011 38.1471 9.22855 38.2191 9.38267 38.3732C9.4546 38.4451 9.50597 38.5324 9.5368 38.6352C9.56762 38.738 9.5779 38.8304 9.56762 38.9126C9.56762 38.9846 9.54707 39.0257 9.50597 39.0359C9.43405 39.077 9.32616 39.1952 9.18231 39.3904C9.03846 39.5754 8.87406 39.7963 8.68911 40.0532C8.51443 40.31 8.33976 40.5772 8.16508 40.8546C8.00068 41.1218 7.85683 41.3632 7.73353 41.579C7.59995 41.877 7.47665 42.139 7.36363 42.365C7.2506 42.5808 7.19409 42.6887 7.19409 42.6887C7.18381 42.7195 7.17354 42.7452 7.16326 42.7658C7.15299 42.7863 7.14271 42.8069 7.13244 42.8274C6.97831 43.1459 6.84987 43.4388 6.74712 43.7059C6.64437 43.9628 6.54162 44.2351 6.43887 44.5228C6.37722 44.5947 6.34126 44.6667 6.33098 44.7386C6.32071 44.8105 6.31557 44.8465 6.31557 44.8465C6.29502 44.8362 6.27961 44.8619 6.26933 44.9235C6.25906 44.9749 6.23851 45.0366 6.20768 45.1085C6.15631 45.1496 6.12548 45.2164 6.11521 45.3088C6.10493 45.391 6.09979 45.4732 6.09979 45.5554C6.02787 45.7404 5.96108 45.9665 5.89943 46.2336C5.83778 46.4905 5.79154 46.7422 5.76072 46.9888C5.74017 47.2251 5.73503 47.4101 5.7453 47.5437C5.76585 47.7183 5.85319 47.8776 6.00732 48.0215C6.17172 48.155 6.36695 48.2681 6.593 48.3605C6.70602 48.4016 6.80364 48.4376 6.88584 48.4684C6.96804 48.489 7.0451 48.4993 7.11702 48.4993C7.19922 48.5095 7.30198 48.5095 7.42528 48.4993C7.55885 48.4787 7.73866 48.4479 7.96472 48.4068H7.9493C8.08288 48.3862 8.22159 48.3605 8.36544 48.3297C8.51957 48.2886 8.66342 48.2526 8.79699 48.2218C8.9203 48.2013 9.03846 48.1807 9.15148 48.1602C9.26451 48.1293 9.35185 48.1037 9.4135 48.0831C9.63955 48.0215 9.80395 47.9804 9.9067 47.9598C10.0095 47.929 10.0865 47.9341 10.1379 47.9752C10.1893 48.0163 10.2252 48.0677 10.2458 48.1293C10.2663 48.1807 10.2612 48.2526 10.2304 48.3451C10.2098 48.3965 10.1276 48.4736 9.98376 48.5763C9.83991 48.6688 9.66524 48.7613 9.45974 48.8537C9.26451 48.9462 9.06928 49.0233 8.87406 49.0849C8.66856 49.1774 8.42196 49.2493 8.13425 49.3007C7.85683 49.3521 7.58454 49.3778 7.31739 49.3778C7.06051 49.3778 6.84987 49.3521 6.68547 49.3007ZM17.4857 49.1928C17.4138 49.0798 17.2494 49.0079 16.9925 48.977C16.7459 48.9462 16.4428 48.9411 16.0832 48.9616C15.9393 48.9822 15.8006 48.9719 15.667 48.9308C15.5335 48.9 15.4256 48.8435 15.3434 48.7613C15.2714 48.6893 15.2458 48.6123 15.2663 48.5301C15.2766 48.4068 15.3793 48.3092 15.5746 48.2372C15.7801 48.1653 16.1037 48.1242 16.5455 48.1139L17.3624 48.0985L17.5165 47.7903C17.5576 47.6772 17.609 47.518 17.6707 47.3125C17.7323 47.107 17.7991 46.8861 17.871 46.6497C17.9121 46.5059 17.9738 46.3107 18.056 46.0641C18.1382 45.8175 18.2255 45.5554 18.318 45.278C18.4105 45.0006 18.4927 44.754 18.5646 44.5382C18.6365 44.3122 18.6828 44.1529 18.7033 44.0604C18.7444 43.968 18.8009 43.8138 18.8728 43.5981C18.9448 43.372 19.0116 43.1459 19.0732 42.9199C19.1451 42.6836 19.1914 42.514 19.2119 42.4113C19.4791 41.5996 19.6538 41.0242 19.736 40.6851C19.8182 40.3357 19.8387 40.1559 19.7976 40.1456C19.7565 40.1456 19.6538 40.1508 19.4894 40.161C19.3352 40.1713 19.1605 40.1867 18.9653 40.2073C18.7804 40.2176 18.6108 40.233 18.4567 40.2535C18.3129 40.2741 18.2255 40.2946 18.1947 40.3152C18.1433 40.3871 18.056 40.4025 17.9327 40.3614C17.8094 40.3203 17.7323 40.2484 17.7015 40.1456C17.6912 40.0532 17.6861 39.9812 17.6861 39.9299C17.6964 39.8785 17.7272 39.8374 17.7786 39.8066C17.8505 39.7449 17.9892 39.6781 18.1947 39.6062C18.4002 39.524 18.6314 39.4521 18.8883 39.3904C19.1554 39.3288 19.4072 39.2825 19.6435 39.2517C19.8182 39.2312 19.9928 39.1952 20.1675 39.1438C20.3422 39.0822 20.4809 39.0102 20.5836 38.928C20.6761 38.8972 20.7635 38.8715 20.8457 38.851C20.9381 38.8304 21.0306 38.8253 21.1231 38.8356C21.2053 38.8869 21.344 38.9126 21.5392 38.9126C21.7447 38.9126 21.9605 38.9075 22.1866 38.8972C22.762 38.8458 23.1473 38.8304 23.3425 38.851C23.548 38.8715 23.6867 38.9537 23.7586 39.0976C23.81 39.2928 23.8203 39.4469 23.7895 39.56C23.7586 39.6627 23.6559 39.7089 23.4812 39.6987C23.3887 39.7192 23.2192 39.7398 22.9726 39.7603C22.7363 39.7706 22.4845 39.7809 22.2174 39.7911C21.4878 39.8528 21.0974 39.9247 21.046 40.0069C21.0049 40.048 20.969 40.0891 20.9381 40.1302C20.9176 40.1713 20.8868 40.2176 20.8457 40.2689C20.8559 40.31 20.8302 40.4436 20.7686 40.6697C20.7172 40.8854 20.6504 41.1064 20.5682 41.3324C20.5271 41.466 20.4655 41.6561 20.3833 41.9027C20.3011 42.1493 20.2137 42.4061 20.1213 42.6733C20.0391 42.9302 19.962 43.1665 19.8901 43.3823C19.8182 43.5878 19.7668 43.7265 19.736 43.7984C19.6949 43.8909 19.6589 43.9936 19.6281 44.1067C19.6075 44.2094 19.5921 44.2865 19.5818 44.3379C19.438 44.8413 19.3095 45.2677 19.1965 45.6171C19.0938 45.9665 18.9961 46.2747 18.9037 46.5419C18.8215 46.7987 18.7444 47.0505 18.6725 47.2971C18.6006 47.5334 18.5235 47.7954 18.4413 48.0831C18.4413 48.0831 18.5184 48.078 18.6725 48.0677C18.8369 48.0471 19.0527 48.0266 19.3198 48.006C19.8027 47.9547 20.147 47.9238 20.3525 47.9136C20.5682 47.9033 20.7121 47.9187 20.784 47.9598C20.8559 47.9906 20.9073 48.0523 20.9381 48.1448C21.1436 48.4222 21.1693 48.6123 21.0152 48.715C20.8611 48.8178 20.4963 48.864 19.9209 48.8537C19.3866 48.8743 18.9756 48.8897 18.6879 48.9C18.4105 48.9205 18.2152 48.9462 18.1022 48.977C17.9995 49.0079 17.9378 49.0592 17.9173 49.1312C17.9173 49.2134 17.8762 49.2545 17.794 49.2545C17.7118 49.2545 17.609 49.2339 17.4857 49.1928ZM36.1255 49.0541C36.1255 49.0541 36.0999 49.0181 36.0485 48.9462C35.9971 48.8846 35.92 48.787 35.8173 48.6534C35.7659 48.5095 35.7145 48.2835 35.6632 47.9752C35.6221 47.6567 35.6169 47.2508 35.6478 46.7576C35.6272 46.6035 35.6272 46.3569 35.6478 46.0178C35.6786 45.6787 35.7197 45.3037 35.7711 44.8927C35.8327 44.4714 35.8944 44.0656 35.956 43.6751C36.0279 43.2847 36.0947 42.9713 36.1564 42.7349C36.1975 42.0876 36.2386 41.6458 36.2797 41.4095C36.3208 41.1629 36.3413 41.0139 36.3413 40.9625C36.331 40.9214 36.2386 41.019 36.0639 41.2553C35.8892 41.4814 35.694 41.7845 35.4782 42.1647C35.3446 42.3805 35.2213 42.5705 35.1083 42.7349C35.0056 42.8891 34.9336 42.9918 34.8925 43.0432C34.8001 43.1768 34.7127 43.3412 34.6305 43.5364C34.5586 43.7214 34.4045 44.0399 34.1681 44.492C33.7571 45.129 33.4335 45.6068 33.1972 45.9254C32.9711 46.2336 32.7862 46.434 32.6423 46.5264C32.4984 46.6086 32.3546 46.6343 32.2107 46.6035C31.9128 46.5316 31.7073 46.4083 31.5942 46.2336C31.4915 46.0589 31.4298 45.7507 31.4093 45.3088C31.399 45.0314 31.3939 44.79 31.3939 44.5845C31.3939 44.379 31.3939 44.2402 31.3939 44.1683C31.435 44.0758 31.4453 43.9731 31.4247 43.8601C31.4144 43.747 31.4144 43.6648 31.4247 43.6135C31.4144 43.5724 31.4298 43.4953 31.4709 43.3823C31.5223 43.259 31.5531 43.1254 31.5634 42.9815C31.5942 42.7863 31.6199 42.55 31.6405 42.2726C31.6713 41.9849 31.6867 41.728 31.6867 41.5019C31.697 41.2759 31.6867 41.1526 31.6559 41.132C31.6764 41.1731 31.6559 41.2348 31.5942 41.317C31.5429 41.3889 31.5018 41.4506 31.4709 41.5019C31.2757 41.7588 31.0497 42.1595 30.7928 42.7041C30.5359 43.2384 30.2071 43.9166 29.8064 44.7386C29.7756 44.9646 29.6882 45.2575 29.5444 45.6171C29.4005 45.9767 29.2567 46.2953 29.1128 46.5727C29.0512 46.7371 28.9792 46.922 28.897 47.1275C28.8148 47.3228 28.7326 47.5077 28.6504 47.6824C28.5682 47.8571 28.4912 47.9958 28.4193 48.0985C28.2857 48.4684 28.1675 48.6893 28.0648 48.7613C27.9723 48.8435 27.8182 48.8126 27.6024 48.6688C27.4585 48.5352 27.3609 48.4016 27.3095 48.2681C27.2582 48.1345 27.289 47.9701 27.402 47.7749C27.5048 47.6618 27.6075 47.4974 27.7103 47.2817C27.8233 47.0659 27.9158 46.8604 27.9877 46.6652C28.0699 46.4699 28.1059 46.3569 28.0956 46.3261C28.0853 46.285 28.1007 46.2285 28.1418 46.1565C28.1932 46.0743 28.296 45.9202 28.4501 45.6942C28.4398 45.6531 28.4809 45.5092 28.5734 45.2626C28.6761 45.0057 28.8148 44.7026 28.9895 44.3533C29.0203 44.3019 29.0512 44.2402 29.082 44.1683C29.1128 44.0964 29.1231 44.0347 29.1128 43.9834C29.1436 43.9423 29.1693 43.8858 29.1899 43.8138C29.2207 43.7419 29.2669 43.6854 29.3286 43.6443C29.3491 43.5518 29.3902 43.4388 29.4519 43.3052C29.5135 43.1716 29.5495 43.0586 29.5598 42.9661C29.6009 42.8737 29.6368 42.7915 29.6677 42.7195C29.7088 42.6476 29.755 42.5808 29.8064 42.5192C29.8475 42.4883 29.8834 42.437 29.9143 42.365C29.9451 42.2931 29.9811 42.2366 30.0222 42.1955C30.0633 42.0722 30.13 41.9284 30.2225 41.764C30.315 41.5996 30.428 41.4146 30.5616 41.2091C30.6952 41.0036 30.8339 40.7878 30.9777 40.5618C31.0497 40.4487 31.1062 40.346 31.1473 40.2535C31.1884 40.1508 31.2603 40.0223 31.3631 39.8682C31.3631 39.8682 31.399 39.8117 31.4709 39.6987C31.5531 39.5856 31.6353 39.4521 31.7175 39.2979C31.7689 39.226 31.8306 39.1335 31.9025 39.0205C31.9744 38.8972 32.0463 38.7893 32.1183 38.6969C32.1902 38.6044 32.2416 38.5581 32.2724 38.5581C32.334 38.5479 32.4317 38.589 32.5652 38.6814C32.6988 38.7739 32.8221 38.8818 32.9351 39.0051C33.0482 39.1284 33.1047 39.2312 33.1047 39.3134C33.1047 39.3545 33.0944 39.4521 33.0739 39.6062C33.0533 39.7603 33.0225 39.9401 32.9814 40.1456C32.9403 40.3511 32.8889 40.5464 32.8273 40.7313C32.817 40.9471 32.7862 41.1988 32.7348 41.4865C32.6937 41.7742 32.6474 42.0671 32.5961 42.365C32.5447 42.663 32.5087 42.9507 32.4882 43.2281C32.4573 43.5775 32.4008 43.8858 32.3186 44.1529C32.2467 44.4201 32.2107 44.5536 32.2107 44.5536C32.2313 44.5947 32.2467 44.6461 32.257 44.7078C32.2775 44.7591 32.2878 44.8311 32.2878 44.9235V45.2626L32.8735 44.6307C33.0173 44.4046 33.1509 44.1991 33.2742 44.0142C33.4078 43.819 33.526 43.6392 33.6287 43.4748C33.6287 43.4234 33.6493 43.3669 33.6904 43.3052C33.7417 43.2436 33.7828 43.1614 33.8137 43.0586C33.8753 43.0175 33.9318 42.9559 33.9832 42.8737C34.0448 42.7915 34.0705 42.7041 34.0603 42.6116C34.163 42.4575 34.3069 42.252 34.4918 41.9951C34.6768 41.728 34.8771 41.4454 35.0929 41.1475C35.319 40.8392 35.5399 40.5412 35.7556 40.2535C35.9714 39.9658 36.1615 39.7192 36.3259 39.5137C36.5006 39.2979 36.6239 39.1592 36.6958 39.0976C36.8397 38.9846 36.9938 38.9229 37.1582 38.9126C37.3329 38.9024 37.5024 38.9846 37.6668 39.1592C37.8004 39.3031 37.8774 39.4418 37.898 39.5754C37.9185 39.6987 37.8826 39.8785 37.7901 40.1148C37.6668 40.5258 37.5435 40.9111 37.4202 41.2708C37.2969 41.6304 37.2404 41.8821 37.2507 42.026C37.2096 42.1184 37.1787 42.2315 37.1582 42.365C37.1376 42.4986 37.1222 42.6065 37.1119 42.6887C37.0708 42.7812 37.04 42.8685 37.0195 42.9507C37.0092 43.0329 36.9784 43.0946 36.927 43.1357C36.927 43.187 36.9373 43.2744 36.9578 43.3977C36.9886 43.5107 36.9938 43.6289 36.9732 43.7522C36.8294 44.6769 36.7318 45.4476 36.6804 46.0641C36.629 46.6703 36.6239 47.1327 36.665 47.4512C36.7164 47.7594 36.8088 47.9341 36.9424 47.9752C36.9835 47.9649 37.0041 47.9855 37.0041 48.0369C37.0143 48.0882 36.9989 48.2115 36.9578 48.4068C36.9681 48.4684 36.963 48.5404 36.9424 48.6226C36.9321 48.6945 36.9167 48.7613 36.8962 48.8229C36.8756 48.8846 36.8551 48.9308 36.8345 48.9616C36.742 49.0644 36.665 49.1209 36.6033 49.1312C36.552 49.1414 36.3927 49.1158 36.1255 49.0541ZM45.1223 49.5627C45.0401 49.46 44.8705 49.3983 44.6137 49.3778C44.3671 49.3572 44.0639 49.3624 43.7043 49.3932C43.5605 49.4137 43.4218 49.4086 43.2882 49.3778C43.1546 49.3469 43.0467 49.2956 42.9645 49.2236C42.8823 49.1517 42.8515 49.0695 42.872 48.977C42.8823 48.8537 42.9851 48.7561 43.1803 48.6842C43.3755 48.602 43.694 48.5506 44.1359 48.5301L44.9527 48.4838L45.1069 48.1602C45.1377 48.0471 45.1788 47.8879 45.2302 47.6824C45.2918 47.4769 45.3535 47.256 45.4151 47.0196C45.4562 46.8758 45.5179 46.6652 45.6001 46.3877C45.6925 46.1 45.7902 45.7969 45.8929 45.4784C45.9957 45.1599 46.0881 44.8722 46.1703 44.6153C46.2525 44.3584 46.2988 44.1837 46.309 44.0913C46.3501 43.9988 46.4067 43.8292 46.4786 43.5826C46.5505 43.336 46.6224 43.0843 46.6944 42.8274C46.7663 42.5603 46.8125 42.3753 46.8331 42.2726C47.0694 41.4506 47.2235 40.8649 47.2954 40.5155C47.3674 40.1662 47.3828 39.9915 47.3417 39.9915C47.3006 39.9915 47.1978 39.9966 47.0334 40.0069C46.8793 40.0172 46.7046 40.0377 46.5094 40.0686C46.3245 40.0891 46.1549 40.1148 46.0008 40.1456C45.8569 40.1662 45.7747 40.1867 45.7542 40.2073C45.7028 40.2792 45.6155 40.2998 45.4922 40.2689C45.3689 40.2278 45.2867 40.1559 45.2456 40.0532C45.2353 39.9607 45.2302 39.8888 45.2302 39.8374C45.2404 39.786 45.2661 39.7449 45.3072 39.7141C45.3791 39.6524 45.5127 39.5805 45.708 39.4983C45.9135 39.4161 46.1446 39.339 46.4015 39.2671C46.6687 39.1952 46.9204 39.1387 47.1567 39.0976C47.3314 39.077 47.5061 39.0359 47.6808 38.9743C47.8554 38.9024 47.989 38.8253 48.0815 38.7431C48.174 38.702 48.2613 38.6712 48.3435 38.6506C48.436 38.6301 48.5285 38.6249 48.6209 38.6352C48.7031 38.6763 48.8418 38.6969 49.0371 38.6969C49.2426 38.6866 49.4583 38.6712 49.6844 38.6506C50.2598 38.5787 50.6503 38.553 50.8558 38.5735C51.0613 38.5838 51.2 38.6609 51.2719 38.8047C51.3233 38.9897 51.3335 39.1387 51.3027 39.2517C51.2822 39.3647 51.1846 39.4161 51.0099 39.4058C50.9174 39.4367 50.7479 39.4623 50.5013 39.4829C50.2649 39.5034 50.0132 39.524 49.746 39.5445C49.3967 39.5856 49.1193 39.6319 48.9138 39.6833C48.7185 39.7244 48.6107 39.7655 48.5901 39.8066C48.549 39.8477 48.513 39.8888 48.4822 39.9299C48.4617 39.971 48.4308 40.0172 48.3897 40.0686C48.4103 40.1097 48.3949 40.2432 48.3435 40.4693C48.2921 40.6851 48.2305 40.9111 48.1586 41.1475C48.1175 41.281 48.0558 41.4814 47.9736 41.7485C47.8914 42.0054 47.8041 42.2777 47.7116 42.5654C47.6294 42.8531 47.5523 43.1151 47.4804 43.3514C47.4085 43.5775 47.3571 43.7265 47.3263 43.7984C47.2954 43.8909 47.2646 43.9936 47.2338 44.1067C47.2132 44.2094 47.203 44.2865 47.203 44.3379C47.0386 45.0057 46.8844 45.576 46.7406 46.0487C46.5967 46.511 46.4632 46.9272 46.3399 47.2971C46.2268 47.667 46.1241 48.042 46.0316 48.4222C46.0316 48.4222 46.1087 48.4171 46.2628 48.4068C46.4272 48.3862 46.643 48.3554 46.9101 48.3143C47.2698 48.2629 47.5523 48.227 47.7578 48.2064C47.9633 48.1859 48.1175 48.1807 48.2202 48.191C48.323 48.191 48.3897 48.2115 48.4206 48.2526C48.4617 48.2835 48.4976 48.3348 48.5285 48.4068C48.7442 48.6739 48.7751 48.8589 48.6209 48.9616C48.4771 49.0644 48.1175 49.126 47.542 49.1466C47.0077 49.1877 46.5967 49.2185 46.309 49.2391C46.0316 49.2699 45.8364 49.3007 45.7234 49.3315C45.6206 49.3624 45.5641 49.4137 45.5538 49.4857C45.5538 49.537 45.5333 49.573 45.4922 49.5935C45.4614 49.6244 45.41 49.6346 45.338 49.6244C45.2764 49.6141 45.2045 49.5935 45.1223 49.5627ZM57.3623 49.0849C57.2595 49.1055 57.1465 49.1003 57.0232 49.0695C56.8999 49.049 56.7971 48.9719 56.7149 48.8383C56.6327 48.7048 56.6071 48.4838 56.6379 48.1756C56.6687 47.8673 56.7817 47.4461 56.977 46.9118C57.0078 46.8193 57.0694 46.6343 57.1619 46.3569C57.2647 46.0692 57.3777 45.7507 57.501 45.4013C57.6243 45.052 57.7424 44.7283 57.8555 44.4303C57.9788 44.1324 58.0764 43.9269 58.1483 43.8138C58.1894 43.7214 58.21 43.6443 58.21 43.5826C58.2202 43.521 58.2254 43.4696 58.2254 43.4285C58.2254 43.3771 58.2459 43.3103 58.287 43.2281C58.3384 43.1357 58.3846 43.0432 58.4257 42.9507C58.4771 42.848 58.5182 42.7555 58.549 42.6733C58.5901 42.5808 58.6107 42.5038 58.6107 42.4421C58.6107 42.4421 58.6364 42.3548 58.6877 42.1801C58.7391 41.9951 58.8059 41.7845 58.8881 41.5482C58.9703 41.3119 59.0628 41.1166 59.1655 40.9625C59.258 40.7262 59.3454 40.5207 59.4276 40.346C59.5098 40.1713 59.5509 40.0532 59.5509 39.9915C59.5509 39.971 59.4378 39.9607 59.2118 39.9607C58.9857 39.9607 58.7134 39.971 58.3949 39.9915C58.0764 40.0018 57.7784 40.0172 57.501 40.0377C57.2236 40.0583 57.0283 40.084 56.9153 40.1148C56.8228 40.1354 56.7406 40.1559 56.6687 40.1765C56.5968 40.1867 56.5505 40.1867 56.53 40.1765C56.4889 40.1559 56.4375 40.0994 56.3759 40.0069C56.3245 39.9144 56.2937 39.8117 56.2834 39.6987C56.2834 39.5754 56.3399 39.4829 56.4529 39.4212C56.6379 39.3082 56.8023 39.2414 56.9461 39.2209C57.1003 39.2003 57.2647 39.1901 57.4393 39.1901C57.6243 39.1798 57.8452 39.1592 58.1021 39.1284C58.3384 39.1284 58.5439 39.1181 58.7186 39.0976C58.8932 39.0668 59.0011 39.0513 59.0422 39.0513C59.145 39.0513 59.2683 39.0308 59.4121 38.9897C59.5663 38.9486 59.7409 38.928 59.9362 38.928C60.0697 38.928 60.2033 38.9178 60.3369 38.8972C60.4705 38.8664 60.5886 38.851 60.6914 38.851C60.7428 38.851 60.8661 38.851 61.0613 38.851C61.2565 38.851 61.4517 38.851 61.647 38.851C61.7908 38.851 61.986 38.8304 62.2326 38.7893C62.4792 38.7482 62.6796 38.7071 62.8337 38.666C63.3064 38.5633 63.6711 38.5376 63.928 38.589C64.1952 38.6403 64.375 38.7945 64.4675 39.0513C64.5086 39.2774 64.3442 39.4367 63.9743 39.5291C63.6146 39.6113 62.9776 39.6781 62.0631 39.7295C61.6213 39.7706 61.3182 39.8014 61.1538 39.822C60.9894 39.8425 60.9072 39.899 60.9072 39.9915C60.9072 40.0532 60.8815 40.1097 60.8301 40.161C60.789 40.2021 60.7479 40.2484 60.7068 40.2998C60.6657 40.3203 60.5989 40.4179 60.5064 40.5926C60.4242 40.7673 60.342 40.9676 60.2598 41.1937C60.1776 41.4197 60.1057 41.6304 60.0441 41.8256C59.9824 42.0106 59.9516 42.1287 59.9516 42.1801C59.9516 42.1801 59.931 42.2161 59.8899 42.288C59.8591 42.3496 59.8437 42.401 59.8437 42.4421C59.8026 42.5449 59.7461 42.663 59.6742 42.7966C59.6125 42.9302 59.556 43.0483 59.5046 43.1511C59.3505 43.5621 59.2221 43.8909 59.1193 44.1375C59.0268 44.3841 58.9498 44.5793 58.8881 44.7232C58.8367 44.8567 58.7905 44.9749 58.7494 45.0777C58.7083 45.2112 58.6415 45.4373 58.549 45.7558C58.4566 46.0743 58.3589 46.3569 58.2562 46.6035C58.2048 46.6754 58.1586 46.7268 58.1175 46.7576C58.0867 46.7782 58.0712 46.8296 58.0712 46.9118C58.0712 46.922 58.0507 47.0042 58.0096 47.1584C57.9685 47.3125 57.912 47.4974 57.8401 47.7132C57.7784 47.9187 57.7116 48.1293 57.6397 48.3451C57.578 48.5506 57.5215 48.7253 57.4702 48.8692C57.4188 49.013 57.3828 49.0849 57.3623 49.0849ZM69.9771 49.1312C69.7716 49.0798 69.5558 49.0027 69.3298 48.9C69.114 48.8075 68.929 48.7048 68.7749 48.5917C68.6208 48.4684 68.5283 48.3605 68.4975 48.2681C68.4975 48.2167 68.4769 48.1756 68.4358 48.1448C68.3947 48.1037 68.3485 48.0831 68.2971 48.0831C68.2971 48.0831 68.2971 48.078 68.2971 48.0677C68.2971 48.0574 68.2971 48.0215 68.2971 47.9598C68.2971 47.9187 68.2971 47.8776 68.2971 47.8365C68.3074 47.7851 68.2869 47.744 68.2355 47.7132C68.1636 47.5591 68.1379 47.3176 68.1584 46.9888C68.179 46.66 68.2303 46.3055 68.3125 45.9254C68.3947 45.5452 68.4872 45.2061 68.59 44.9081C68.59 44.8156 68.6054 44.7232 68.6362 44.6307C68.6773 44.5382 68.6979 44.4663 68.6979 44.4149C68.7287 44.3224 68.7852 44.1837 68.8674 43.9988C68.9496 43.8036 69.0472 43.5929 69.1602 43.3669C69.2733 43.1305 69.3863 42.9096 69.4993 42.7041C69.6123 42.4883 69.7151 42.3239 69.8076 42.2109C69.8076 42.1595 69.8435 42.0928 69.9154 42.0106C69.9874 41.9284 70.0439 41.8153 70.085 41.6715C70.1672 41.5893 70.2699 41.4506 70.3932 41.2553C70.5268 41.0601 70.645 40.8803 70.7477 40.7159C70.9635 40.5412 71.0971 40.3871 71.1485 40.2535C71.1998 40.1097 71.2152 39.9966 71.1947 39.9144C71.205 39.7603 71.2255 39.6422 71.2563 39.56C71.2974 39.4778 71.3796 39.411 71.5029 39.3596C71.6365 39.2979 71.8369 39.2363 72.104 39.1746C72.4328 39.0513 72.7668 38.964 73.1059 38.9126C73.4552 38.8613 73.897 38.8304 74.4313 38.8202C74.5957 38.7791 74.7242 38.7585 74.8166 38.7585C74.9091 38.7482 74.9554 38.7431 74.9554 38.7431C74.9759 38.7225 75.0376 38.7277 75.1403 38.7585C75.2533 38.7893 75.3766 38.8356 75.5102 38.8972C75.6438 38.9486 75.7568 39 75.8493 39.0513C75.952 39.1027 75.9983 39.1438 75.988 39.1746C75.988 39.2363 75.9161 39.2979 75.7722 39.3596C75.6387 39.4212 75.4691 39.4778 75.2636 39.5291C75.0581 39.5805 74.8423 39.6216 74.6163 39.6524C74.1539 39.7038 73.7635 39.7655 73.4449 39.8374C73.1367 39.9093 72.8695 40.0121 72.6435 40.1456C72.4277 40.2792 72.2222 40.4539 72.027 40.6697C71.842 40.8854 71.6417 41.168 71.4259 41.5174C71.1485 41.9489 70.9635 42.2623 70.871 42.4575C70.7888 42.6527 70.7683 42.776 70.8094 42.8274C70.8608 42.8685 70.943 42.8891 71.056 42.8891C71.1793 42.8891 71.2923 42.8788 71.3951 42.8582C71.5081 42.8274 71.5954 42.812 71.6571 42.812C71.6571 42.812 71.7906 42.7812 72.0578 42.7195C72.3249 42.6476 72.6024 42.5911 72.8901 42.55C73.2189 42.4883 73.4398 42.4421 73.5528 42.4113C73.6761 42.3702 73.7943 42.3445 73.9073 42.3342C74.2567 42.3034 74.4724 42.3394 74.5546 42.4421C74.6471 42.5346 74.6368 42.6476 74.5238 42.7812C74.4211 42.9148 74.2412 43.0329 73.9844 43.1357C73.8816 43.1768 73.7532 43.223 73.5991 43.2744C73.4449 43.3258 73.3011 43.372 73.1675 43.4131C73.0339 43.4439 72.9466 43.4593 72.9055 43.4593C72.9055 43.4593 72.8644 43.4696 72.7822 43.4902C72.7103 43.5004 72.6075 43.5056 72.4739 43.5056C72.4431 43.5056 72.2941 43.5261 72.027 43.5672C71.7598 43.5981 71.5081 43.6289 71.2718 43.6597C70.9121 43.7522 70.6347 43.8292 70.4395 43.8909C70.2545 43.9423 70.1158 44.0142 70.0233 44.1067C69.9309 44.1991 69.8435 44.3481 69.7613 44.5536C69.6688 44.7797 69.5764 45.0725 69.4839 45.4321C69.4017 45.7815 69.3349 46.136 69.2835 46.4956C69.2322 46.8552 69.2065 47.1738 69.2065 47.4512C69.2065 47.7183 69.2424 47.8879 69.3144 47.9598C69.4171 48.0934 69.6226 48.1756 69.9309 48.2064C70.2494 48.2372 70.5936 48.2167 70.9635 48.1448C71.3334 48.0728 71.6417 47.9598 71.8883 47.8057C71.9705 47.744 72.0681 47.6824 72.1811 47.6207C72.3044 47.5488 72.4226 47.4923 72.5356 47.4512C72.6692 47.369 72.7616 47.333 72.813 47.3433C72.8747 47.3433 73.0031 47.4152 73.1983 47.5591C73.373 47.8057 73.3884 47.9958 73.2446 48.1293C73.1007 48.2526 72.7411 48.4376 72.1657 48.6842C71.6314 48.8794 71.205 49.0079 70.8864 49.0695C70.5782 49.1312 70.2751 49.1517 69.9771 49.1312ZM82.682 50.1792C82.4868 50.21 82.307 50.2255 82.1426 50.2255C81.9782 50.2357 81.7367 50.1998 81.4182 50.1176C81.2538 50.0662 81.1356 50.0045 81.0637 49.9326C81.002 49.8607 80.8941 49.7271 80.74 49.5319C80.627 49.3675 80.5448 49.2134 80.4934 49.0695C80.4523 48.9359 80.4472 48.8281 80.478 48.7459C80.5088 48.6739 80.5756 48.6534 80.6784 48.6842C80.7092 48.6945 80.7554 48.7253 80.8171 48.7767C80.889 48.8383 80.9558 48.9103 81.0174 48.9925C81.1613 49.1466 81.336 49.2493 81.5415 49.3007C81.747 49.3521 82.0193 49.3572 82.3583 49.3161C82.5022 49.2853 82.6769 49.2391 82.8824 49.1774C83.0879 49.126 83.2882 49.0592 83.4835 48.977C83.6787 48.8948 83.8328 48.8126 83.9458 48.7304C84.4904 48.3605 84.9271 48.0677 85.2559 47.8519C85.5847 47.6361 85.7491 47.5283 85.7491 47.5283C85.7697 47.4872 85.8056 47.4563 85.857 47.4358C85.9186 47.405 85.9906 47.3741 86.0728 47.3433C86.1344 47.2817 86.232 47.184 86.3656 47.0505C86.5095 46.9169 86.643 46.7833 86.7663 46.6497C86.8999 46.5162 86.9821 46.4391 87.0129 46.4186C87.0335 46.3261 87.054 46.2542 87.0746 46.2028C87.0951 46.1411 87.1054 46.0795 87.1054 46.0178C87.1876 45.9356 87.2955 45.7661 87.4291 45.5092C87.5729 45.2421 87.7168 44.9492 87.8606 44.6307C88.0045 44.3019 88.1072 44.0039 88.1689 43.7368C88.3127 43.0175 88.3487 42.4113 88.2768 41.9181C88.2048 41.4249 88.0559 41.0036 87.8298 40.6542C87.614 40.2946 87.3417 39.9761 87.0129 39.6987C86.8999 39.6062 86.7406 39.5086 86.5351 39.4058C86.3399 39.2928 86.1344 39.1952 85.9186 39.113C85.7029 39.0308 85.5128 38.964 85.3484 38.9126C85.1943 38.8613 85.1018 38.8407 85.071 38.851C85.0299 38.8613 84.9425 39.0257 84.8089 39.3442C84.6856 39.6524 84.5366 40.048 84.362 40.5309C84.1873 41.0139 83.9972 41.5276 83.7917 42.0722C83.5965 42.6168 83.4115 43.1305 83.2369 43.6135C83.1752 43.8087 83.1084 44.0142 83.0365 44.23C82.9646 44.4457 82.9029 44.6358 82.8515 44.8002C82.8002 44.9544 82.7745 45.0571 82.7745 45.1085C82.6615 45.2832 82.569 45.5143 82.4971 45.802C82.4354 46.0898 82.3635 46.5675 82.2813 47.2354C82.1888 47.5848 82.122 47.8519 82.0809 48.0369C82.0398 48.2115 81.9987 48.2937 81.9576 48.2835C81.9576 48.2835 81.9525 48.2886 81.9422 48.2989C81.9422 48.2989 81.9268 48.3143 81.896 48.3451C81.896 48.4068 81.8549 48.4376 81.7727 48.4376C81.6905 48.4376 81.5928 48.4171 81.4798 48.376C81.3771 48.3246 81.2949 48.2681 81.2332 48.2064C81.2024 48.0934 81.1818 47.9855 81.1716 47.8827C81.1716 47.78 81.2127 47.5796 81.2949 47.2817C81.3462 47.0864 81.4079 46.8501 81.4798 46.5727C81.562 46.285 81.6494 45.9921 81.7418 45.6942C81.8343 45.3859 81.9216 45.1033 82.0038 44.8465C82.086 44.5896 82.1477 44.3944 82.1888 44.2608C82.2607 44.0861 82.3635 43.7573 82.4971 43.2744C82.5793 43.0072 82.6615 42.7401 82.7437 42.4729C82.8361 42.2058 82.9235 41.9695 83.0057 41.764C83.0879 41.5482 83.1444 41.4095 83.1752 41.3478C83.2266 41.2142 83.3036 40.9882 83.4064 40.6697C83.5091 40.3511 83.6427 39.9966 83.8071 39.6062L83.915 39.0976L83.7455 39.0205C83.6222 39.0616 83.5246 39.077 83.4526 39.0668C83.391 39.0462 83.3499 39.0308 83.3293 39.0205C83.2677 39.0411 83.1803 39.0257 83.0673 38.9743C82.9543 38.9229 82.8515 38.8561 82.7591 38.7739C82.6769 38.6917 82.6255 38.6198 82.6049 38.5581C82.5844 38.517 82.569 38.4657 82.5587 38.404C82.5587 38.3321 82.5587 38.2961 82.5587 38.2961C82.569 38.2345 82.646 38.178 82.7899 38.1266C82.9337 38.0649 83.1187 38.0136 83.3447 37.9725C83.5811 37.9314 83.8328 37.9057 84.1 37.8954C84.3774 37.8748 84.6445 37.8748 84.9014 37.8954C85.1686 37.9159 85.4203 37.9725 85.6566 38.0649C85.893 38.1574 86.1498 38.255 86.4273 38.3578C86.7561 38.4811 87.1003 38.6969 87.4599 39.0051C87.8298 39.3031 88.1637 39.6576 88.4617 40.0686C88.77 40.4796 88.9755 40.9111 89.0782 41.3632C89.109 41.4865 89.1399 41.6612 89.1707 41.8873C89.2015 42.1133 89.2169 42.3342 89.2169 42.55C89.2272 42.7555 89.2067 42.8891 89.1553 42.9507C89.1347 42.9918 89.1193 43.0432 89.109 43.1048C89.109 43.1562 89.1296 43.1922 89.1707 43.2127C89.1604 43.2436 89.1245 43.3617 89.0628 43.5672C89.0012 43.7625 88.9446 43.932 88.8933 44.0758C88.8727 44.343 88.8111 44.6204 88.7083 44.9081C88.6056 45.1958 88.4925 45.4681 88.3692 45.725C88.2459 45.9716 88.1329 46.1822 88.0302 46.3569C87.9891 46.3569 87.948 46.3672 87.9069 46.3877C87.876 46.398 87.8812 46.4083 87.9223 46.4186C87.9223 46.4699 87.8658 46.5675 87.7527 46.7114C87.7116 46.7422 87.6449 46.8193 87.5524 46.9426C87.4702 47.0556 87.4034 47.1327 87.352 47.1738C87.3417 47.2457 87.3109 47.3073 87.2595 47.3587C87.2082 47.3998 87.1619 47.4204 87.1208 47.4204C87.1208 47.4204 87.1105 47.4204 87.09 47.4204C87.0797 47.4204 87.0746 47.4409 87.0746 47.482C86.9924 47.6053 86.8639 47.7543 86.6893 47.929C86.5146 48.0934 86.3142 48.2681 86.0882 48.453C85.8724 48.6277 85.6464 48.7921 85.41 48.9462C85.184 49.1003 84.9682 49.2185 84.7627 49.3007C84.66 49.3726 84.5521 49.4291 84.439 49.4702C84.326 49.5216 84.2181 49.573 84.1154 49.6244C84.064 49.6655 83.951 49.722 83.7763 49.7939C83.6016 49.8761 83.4115 49.9532 83.206 50.0251C83.0108 50.097 82.8361 50.1484 82.682 50.1792Z" fill="black"/>
<defs>
<filter id="filter0_d_49_73" x="0.466494" y="8.26825" width="92.0733" height="36.104" filterUnits="userSpaceOnUse" color-interpolation-filters="sRGB">
<feFlood flood-opacity="0" result="BackgroundImageFix"/>
<feColorMatrix in="SourceAlpha" type="matrix" values="0 0 0 0 0 0 0 0 0 0 0 0 0 0 0 0 0 0 127 0" result="hardAlpha"/>
<feOffset dy="1.92657"/>
<feGaussianBlur stdDeviation="0.963286"/>
<feComposite in2="hardAlpha" operator="out"/>
<feColorMatrix type="matrix" values="0 0 0 0 0 0 0 0 0 0 0 0 0 0 0 0 0 0 0.25 0"/>
<feBlend mode="normal" in2="BackgroundImageFix" result="effect1_dropShadow_49_73"/>
<feBlend mode="normal" in="SourceGraphic" in2="effect1_dropShadow_49_73" result="shape"/>
</filter>
</defs>
</svg>
